<svg width="12" height="12" viewBox="0 0 12 12" fill="none" xmlns="http://www.w3.org/2000/svg">
<path d="M0.75 10.5C0.75 10.9219 1.07812 11.25 1.5 11.25H10.5C10.8984 11.25 11.25 10.9219 11.25 10.5V3.75H0.75V10.5ZM4.5 5.53125C4.5 5.39062 4.61719 5.25 4.78125 5.25H7.21875C7.35938 5.25 7.5 5.39062 7.5 5.53125V5.71875C7.5 5.88281 7.35938 6 7.21875 6H4.78125C4.61719 6 4.5 5.88281 4.5 5.71875V5.53125ZM11.25 0.75H0.75C0.328125 0.75 0 1.10156 0 1.5V2.625C0 2.83594 0.164062 3 0.375 3H11.625C11.8125 3 12 2.83594 12 2.625V1.5C12 1.10156 11.6484 0.75 11.25 0.75Z" fill="#787587"/>
</svg>
