<svg width="17" height="18" viewBox="0 0 17 18" fill="none" xmlns="http://www.w3.org/2000/svg">
<path d="M16.0587 12.7617C15.3907 12.0234 14.0899 10.9336 14.0899 7.3125C14.0899 4.60547 12.1915 2.42578 9.58991 1.86328V1.125C9.58991 0.527344 9.09773 0 8.50007 0C7.86726 0 7.37507 0.527344 7.37507 1.125V1.86328C4.77351 2.42578 2.87507 4.60547 2.87507 7.3125C2.87507 10.9336 1.57429 12.0234 0.90632 12.7617C0.695383 12.9727 0.589914 13.2539 0.62507 13.5C0.62507 14.0977 1.04695 14.625 1.75007 14.625H15.2149C15.918 14.625 16.3399 14.0977 16.3751 13.5C16.3751 13.2539 16.2696 12.9727 16.0587 12.7617ZM2.98054 12.9375C3.71882 11.9883 4.52741 10.3359 4.56257 7.34766C4.56257 7.34766 4.56257 7.34766 4.56257 7.3125C4.56257 5.16797 6.32038 3.375 8.50007 3.375C10.6446 3.375 12.4376 5.16797 12.4376 7.3125C12.4376 7.34766 12.4024 7.34766 12.4024 7.34766C12.4376 10.3359 13.2462 11.9883 13.9844 12.9375H2.98054ZM8.50007 18C9.73054 18 10.7149 17.0156 10.7149 15.75H6.25007C6.25007 17.0156 7.23445 18 8.50007 18Z" fill="#535D70"/>
</svg>
