<svg width="12" height="12" viewBox="0 0 12 12" fill="none" xmlns="http://www.w3.org/2000/svg">
<path d="M7.5 7.875C7.5 8.08594 7.3125 8.25 7.125 8.25H4.875C4.66406 8.25 4.5 8.08594 4.5 7.875V6.75H0V10.125C0 10.7344 0.515625 11.25 1.125 11.25H10.875C11.4609 11.25 12 10.7344 12 10.125V6.75H7.5V7.875ZM10.875 3H9V1.875C9 1.28906 8.46094 0.75 7.875 0.75H4.125C3.51562 0.75 3 1.28906 3 1.875V3H1.125C0.515625 3 0 3.53906 0 4.125V6H12V4.125C12 3.53906 11.4609 3 10.875 3ZM7.5 3H4.5V2.25H7.5V3Z" fill="#787587"/>
</svg>
