<svg width="18" height="18" viewBox="0 0 18 18" fill="none" xmlns="http://www.w3.org/2000/svg">
<path d="M15.4821 17.25C16.4397 17.25 17.25 16.4766 17.25 15.4821V2.51786C17.25 1.56027 16.4397 0.75 15.4821 0.75H2.51786C1.52344 0.75 0.75 1.56027 0.75 2.51786V15.4821C0.75 16.4766 1.52344 17.25 2.51786 17.25H15.4821ZM7.93192 13.6406C7.71094 13.8984 7.3058 13.8984 7.08482 13.6406L3.25446 9.81027C3.03348 9.58929 3.03348 9.22098 3.25446 9L4.10156 8.1529C4.32254 7.93192 4.69085 7.93192 4.91183 8.1529L7.52679 10.731L13.0513 5.20647C13.2723 4.98549 13.6406 4.98549 13.8616 5.20647L14.7087 6.05357C14.9297 6.27455 14.9297 6.64286 14.7087 6.86384L7.93192 13.6406Z" fill="#26AFAB"/>
</svg>
