<svg width="18" height="18" viewBox="0 0 18 18" fill="none" xmlns="http://www.w3.org/2000/svg">
<path d="M15.4821 0.75H2.51786C1.52344 0.75 0.75 1.56027 0.75 2.51786V15.4821C0.75 16.4766 1.52344 17.25 2.51786 17.25H15.4821C16.4397 17.25 17.25 16.4766 17.25 15.4821V2.51786C17.25 1.56027 16.4397 0.75 15.4821 0.75ZM15.2612 15.4821H2.73884C2.59152 15.4821 2.51786 15.4085 2.51786 15.2612V2.73884C2.51786 2.62835 2.59152 2.51786 2.73884 2.51786H15.2612C15.3717 2.51786 15.4821 2.62835 15.4821 2.73884V15.2612C15.4821 15.4085 15.3717 15.4821 15.2612 15.4821Z" fill="#DCDCE6"/>
</svg>
