<svg width="49" height="49" viewBox="0 0 49 49" fill="none" xmlns="http://www.w3.org/2000/svg">
<path d="M24.5 0.875C11.4522 0.875 0.875 11.4522 0.875 24.5C0.875 37.5478 11.4522 48.125 24.5 48.125C37.5478 48.125 48.125 37.5478 48.125 24.5C48.125 11.4522 37.5478 0.875 24.5 0.875ZM24.5 45.0766C13.1958 45.0766 3.92339 35.9262 3.92339 24.5C3.92339 13.1959 13.0738 3.92339 24.5 3.92339C35.8042 3.92339 45.0766 13.0738 45.0766 24.5C45.0766 35.8041 35.9262 45.0766 24.5 45.0766ZM37.992 18.8833L20.7991 35.9382C20.3509 36.3828 19.6271 36.3799 19.1825 35.9317L11.0016 27.6847C10.557 27.2365 10.5598 26.5127 11.008 26.0681L11.8197 25.2631C12.2679 24.8185 12.9917 24.8213 13.4363 25.2695L20.0071 31.8934L35.5768 16.4485C36.025 16.004 36.7488 16.0068 37.1934 16.455L37.9984 17.2667C38.4431 17.7149 38.4402 18.4387 37.992 18.8833Z" fill="white"/>
</svg>
