<svg width="13" height="12" viewBox="0 0 13 12" fill="none" xmlns="http://www.w3.org/2000/svg">
<path d="M12.5548 1.33594L11.6642 0.445312C11.383 0.164062 10.9845 0 10.6095 0C10.2345 0 9.83609 0.164062 9.55484 0.445312L7.79702 2.20312L7.00015 3L1.2814 8.71875L1.00015 11.3906C0.953274 11.7188 1.21109 12 1.53921 12C1.56265 12 1.58609 12 1.60952 12L4.2814 11.7188L10.0001 6L10.797 5.20312L12.5548 3.44531C13.1408 2.85938 13.1408 1.92188 12.5548 1.33594ZM3.76577 10.6406L2.19546 10.8047L2.35952 9.23438L7.77359 3.79688L8.50015 3.07031L9.92984 4.5L9.20327 5.22656L3.76577 10.6406ZM11.758 2.64844L10.7267 3.70312L9.29702 2.27344L10.3517 1.24219C10.4455 1.14844 10.5626 1.125 10.6095 1.125C10.6564 1.125 10.7736 1.14844 10.8673 1.24219L11.758 2.13281C11.8986 2.27344 11.8986 2.50781 11.758 2.64844Z" fill="#26AFAB"/>
</svg>
