<svg width="8" height="8" viewBox="0 0 8 8" fill="none" xmlns="http://www.w3.org/2000/svg">
<path d="M4.77344 4.23242L7.1875 1.8418L7.67969 1.34961C7.75 1.2793 7.75 1.16211 7.67969 1.06836L7.16406 0.552734C7.07031 0.482422 6.95312 0.482422 6.88281 0.552734L4 3.45898L1.09375 0.552734C1.02344 0.482422 0.90625 0.482422 0.8125 0.552734L0.296875 1.06836C0.226563 1.16211 0.226563 1.2793 0.296875 1.34961L3.20312 4.23242L0.296875 7.13867C0.226563 7.20898 0.226563 7.32617 0.296875 7.41992L0.8125 7.93555C0.90625 8.00586 1.02344 8.00586 1.09375 7.93555L4 5.0293L6.39062 7.44336L6.88281 7.93555C6.95312 8.00586 7.07031 8.00586 7.16406 7.93555L7.67969 7.41992C7.75 7.32617 7.75 7.20898 7.67969 7.13867L4.77344 4.23242Z" fill="#E0F4F3"/>
</svg>
