<svg width="12" height="16" viewBox="0 0 12 16" fill="none" xmlns="http://www.w3.org/2000/svg">
<path d="M11.1562 1.90625H11.2734C11.4676 1.90625 11.625 1.74884 11.625 1.55469V0.851562C11.625 0.657412 11.4676 0.5 11.2734 0.5H0.726562C0.532412 0.5 0.375 0.657412 0.375 0.851562V1.55469C0.375 1.74884 0.532412 1.90625 0.726562 1.90625H0.84375C0.84375 4.26652 1.78676 6.76388 3.69082 8C1.77826 9.24163 0.84375 11.7471 0.84375 14.0938H0.726562C0.532412 14.0938 0.375 14.2512 0.375 14.4453V15.1484C0.375 15.3426 0.532412 15.5 0.726562 15.5H11.2734C11.4676 15.5 11.625 15.3426 11.625 15.1484V14.4453C11.625 14.2512 11.4676 14.0938 11.2734 14.0938H11.1562C11.1562 11.7335 10.2132 9.23612 8.30918 8C10.2217 6.75837 11.1562 4.25293 11.1562 1.90625ZM9.75 1.90625C9.75 2.74625 9.61629 3.54131 9.3779 4.25H2.6221C2.38371 3.54131 2.25 2.74625 2.25 1.90625H9.75ZM9.3779 11.75H2.6221C3.22866 9.94687 4.51327 8.70312 6 8.70312C7.48673 8.70312 8.77134 9.94687 9.3779 11.75Z" fill="#FC930D"/>
</svg>
