<svg width="18" height="18" viewBox="0 0 18 18" fill="none" xmlns="http://www.w3.org/2000/svg">
<path d="M9 0.28125C4.18359 0.28125 0.28125 4.21875 0.28125 9C0.28125 13.8164 4.18359 17.7188 9 17.7188C13.7812 17.7188 17.7188 13.8164 17.7188 9C17.7188 4.21875 13.7812 0.28125 9 0.28125ZM9 16.0312C5.09766 16.0312 1.96875 12.9023 1.96875 9C1.96875 5.13281 5.09766 1.96875 9 1.96875C12.8672 1.96875 16.0312 5.13281 16.0312 9C16.0312 12.9023 12.8672 16.0312 9 16.0312ZM9 4.14844C8.15625 4.14844 7.52344 4.81641 7.52344 5.625C7.52344 6.46875 8.15625 7.10156 9 7.10156C9.80859 7.10156 10.4766 6.46875 10.4766 5.625C10.4766 4.81641 9.80859 4.14844 9 4.14844ZM10.9688 13.0781V12.2344C10.9688 12.0234 10.7578 11.8125 10.5469 11.8125H10.125V8.29688C10.125 8.08594 9.91406 7.875 9.70312 7.875H7.45312C7.20703 7.875 7.03125 8.08594 7.03125 8.29688V9.14062C7.03125 9.38672 7.20703 9.5625 7.45312 9.5625H7.875V11.8125H7.45312C7.20703 11.8125 7.03125 12.0234 7.03125 12.2344V13.0781C7.03125 13.3242 7.20703 13.5 7.45312 13.5H10.5469C10.7578 13.5 10.9688 13.3242 10.9688 13.0781Z" fill="#535D70"/>
</svg>
