<svg width="8" height="12" viewBox="0 0 8 12" fill="none" xmlns="http://www.w3.org/2000/svg">
<path d="M3.5896 11.0449C3.77417 11.332 4.20483 11.332 4.3894 11.0449C7.38354 6.73828 7.93726 6.28711 7.93726 4.6875C7.93726 2.51367 6.17358 0.75 3.99976 0.75C1.80542 0.75 0.0622559 2.51367 0.0622559 4.6875C0.0622559 6.28711 0.595459 6.73828 3.5896 11.0449ZM3.99976 6.32813C3.0769 6.32813 2.35913 5.61035 2.35913 4.6875C2.35913 3.78516 3.0769 3.04688 3.99976 3.04688C4.9021 3.04688 5.64038 3.78516 5.64038 4.6875C5.64038 5.61035 4.9021 6.32813 3.99976 6.32813Z" fill="#9F9EAE"/>
</svg>
