<svg width="18" height="18" viewBox="0 0 18 18" fill="none" xmlns="http://www.w3.org/2000/svg">
<path d="M15.75 0H2.25C0.984375 0 0 1.01953 0 2.25V12.375C0 13.6406 0.984375 14.625 2.25 14.625H5.625V17.5781C5.625 17.8594 5.80078 18 6.04688 18C6.11719 18 6.1875 18 6.29297 17.9297L10.6875 14.625H15.75C16.9805 14.625 18 13.6406 18 12.375V2.25C18 1.01953 16.9805 0 15.75 0ZM16.3125 12.375C16.3125 12.6914 16.0312 12.9375 15.75 12.9375H10.125L9.66797 13.2891L7.3125 15.0469V12.9375H2.25C1.93359 12.9375 1.6875 12.6914 1.6875 12.375V2.25C1.6875 1.96875 1.93359 1.6875 2.25 1.6875H15.75C16.0312 1.6875 16.3125 1.96875 16.3125 2.25V12.375ZM12.9375 4.78125H5.0625C4.74609 4.78125 4.5 5.0625 4.5 5.34375V5.90625C4.5 6.22266 4.74609 6.46875 5.0625 6.46875H12.9375C13.2188 6.46875 13.5 6.22266 13.5 5.90625V5.34375C13.5 5.0625 13.2188 4.78125 12.9375 4.78125ZM9.5625 8.15625H5.0625C4.74609 8.15625 4.5 8.4375 4.5 8.71875V9.28125C4.5 9.59766 4.74609 9.84375 5.0625 9.84375H9.5625C9.84375 9.84375 10.125 9.59766 10.125 9.28125V8.71875C10.125 8.4375 9.84375 8.15625 9.5625 8.15625Z" fill="#535D70"/>
</svg>
