<svg width="16" height="16" viewBox="0 0 16 16" fill="none" xmlns="http://www.w3.org/2000/svg">
<path d="M15.1486 0.5H13.7424C13.5666 0.5 13.3908 0.675781 13.3908 0.851562C13.3908 0.880859 13.3908 0.880859 13.3908 0.880859L13.508 3.3125C12.3361 1.90625 9.8459 0.734375 8.00019 0.734375C3.98652 0.734375 0.705273 4.01562 0.73457 8.0293C0.73457 12.043 3.98652 15.2656 8.00019 15.2656C9.52363 15.2656 11.7209 14.4453 12.8635 13.4199C12.9221 13.3613 12.9807 13.2441 12.9807 13.1562C12.9807 13.0684 12.9221 12.9512 12.8635 12.8926L11.8674 11.8965C11.8088 11.8379 11.6916 11.8086 11.633 11.8086C11.5451 11.8086 11.4572 11.8379 11.3986 11.8965C10.5783 12.5996 9.05488 13.1562 8.00019 13.1562C5.1291 13.1562 2.84394 10.8711 2.84394 8C2.84394 5.1582 5.1291 2.84375 8.00019 2.84375C9.49433 2.84375 11.4279 3.86914 12.2775 5.12891L9.28926 4.98242C9.08418 4.98242 8.93769 5.1582 8.93769 5.33398V6.74023C8.93769 6.91602 9.08418 7.0918 9.28926 7.0918H15.1486C15.3244 7.0918 15.5002 6.91602 15.5002 6.74023V0.851562C15.5002 0.675781 15.3244 0.5 15.1486 0.5Z" fill="#FC930D"/>
</svg>
