<svg width="18" height="18" viewBox="0 0 18 18" fill="none" xmlns="http://www.w3.org/2000/svg">
<path d="M17.5018 3.44461L14.5526 0.495703C14.2362 0.179297 13.8073 0 13.3611 0H6.18715C5.25586 0.00351563 4.5 0.759375 4.5 1.69066V9.28371H0.421875C0.188789 9.28371 0 9.4725 0 9.70559V10.5493C0 10.7824 0.188789 10.9712 0.421875 10.9712H10.125V12.6896C10.125 13.0662 10.581 13.2539 10.8464 12.9867L13.3696 10.4446C13.5436 10.2691 13.5436 9.98613 13.3696 9.8107L10.8464 7.26855C10.581 7.00137 10.125 7.1891 10.125 7.56562V9.28406H6.18715V1.69066H11.8111V5.34621C11.8111 5.81379 12.1873 6.18961 12.6548 6.18961H16.3125V16.3129H6.18715V12.6587H4.5V16.3129C4.5 17.2441 5.25586 18 6.18715 18H16.31C17.2417 18 18 17.2441 18 16.3129V4.63957C18 4.19344 17.8182 3.76102 17.5018 3.44461ZM13.4982 4.50246V1.82777L16.1733 4.50246H13.4982Z" fill="#535D70"/>
</svg>
