<svg width="18" height="17" viewBox="0 0 18 17" fill="none" xmlns="http://www.w3.org/2000/svg">
<path d="M10.6875 12.5425H8.4375C8.12109 12.5425 7.875 12.812 7.875 13.0815V13.6206C7.875 13.9238 8.12109 14.1597 8.4375 14.1597H10.6875C10.9688 14.1597 11.25 13.9238 11.25 13.6206V13.0815C11.25 12.812 10.9688 12.5425 10.6875 12.5425ZM0.984375 4.18701H2.53125V15.5073C2.53125 15.8105 2.77734 16.0464 3.09375 16.0464H3.65625C3.9375 16.0464 4.21875 15.8105 4.21875 15.5073V4.18701H5.76562C5.97656 4.18701 6.1875 4.01855 6.1875 3.78271C6.1875 3.71533 6.11719 3.58057 6.04688 3.51318L3.65625 1.0874C3.58594 1.02002 3.44531 0.986328 3.375 0.986328C3.26953 0.986328 3.12891 1.02002 3.05859 1.0874L0.667969 3.51318C0.597656 3.58057 0.5625 3.71533 0.5625 3.78271C0.5625 4.01855 0.738281 4.18701 0.984375 4.18701ZM15.1875 6.07373H8.4375C8.12109 6.07373 7.875 6.34326 7.875 6.61279V7.15186C7.875 7.45508 8.12109 7.69092 8.4375 7.69092H15.1875C15.4688 7.69092 15.75 7.45508 15.75 7.15186V6.61279C15.75 6.34326 15.4688 6.07373 15.1875 6.07373ZM17.4375 2.83936H8.4375C8.12109 2.83936 7.875 3.10889 7.875 3.37842V3.91748C7.875 4.2207 8.12109 4.45654 8.4375 4.45654H17.4375C17.7188 4.45654 18 4.2207 18 3.91748V3.37842C18 3.10889 17.7188 2.83936 17.4375 2.83936ZM12.9375 9.30811H8.4375C8.12109 9.30811 7.875 9.57764 7.875 9.84717V10.3862C7.875 10.6895 8.12109 10.9253 8.4375 10.9253H12.9375C13.2188 10.9253 13.5 10.6895 13.5 10.3862V9.84717C13.5 9.57764 13.2188 9.30811 12.9375 9.30811Z" fill="#535D70"/>
</svg>
