<svg width="20" height="19" viewBox="0 0 20 19" fill="none" xmlns="http://www.w3.org/2000/svg">
<path d="M18.4377 6.04646L13.3049 5.30818L10.9846 0.632394C10.5978 -0.176199 9.40253 -0.211356 8.98065 0.632394L6.6955 5.30818L1.52753 6.04646C0.613467 6.18708 0.261904 7.31208 0.929873 7.98005L4.62128 11.6011L3.74237 16.6988C3.60175 17.6129 4.58612 18.316 5.39472 17.8941L10.0002 15.4683L14.5705 17.8941C15.3791 18.316 16.3635 17.6129 16.2228 16.6988L15.3439 11.6011L19.0353 7.98005C19.7033 7.31208 19.3517 6.18708 18.4377 6.04646ZM14.1135 11.1793L15.0978 16.8746L10.0002 14.2027L4.86737 16.8746L5.85175 11.1793L1.70331 7.17146L7.43378 6.32771L10.0002 1.12458L12.5314 6.32771L18.2619 7.17146L14.1135 11.1793Z" fill="#C4C3D1"/>
</svg>
