<svg width="12" height="11" viewBox="0 0 12 11" fill="none" xmlns="http://www.w3.org/2000/svg">
<path d="M11.2306 0.185547H10.6303C10.4803 0.185547 10.3731 0.314167 10.3731 0.464224L10.416 2.56502C9.47276 1.1502 7.84357 0.185547 6.00001 0.185547C3.38473 0.185547 1.21962 2.05054 0.769448 4.51577C0.726574 4.68726 0.855195 4.81588 1.02669 4.81588H1.62692C1.75554 4.81588 1.86272 4.75157 1.88416 4.62295C2.29146 2.73652 3.96352 1.30026 6.00001 1.30026C7.69351 1.30026 9.15121 2.32922 9.81575 3.78692L7.11472 3.72261C6.96466 3.72261 6.85748 3.82979 6.85748 3.97985V4.55864C6.85748 4.7087 6.96466 4.81588 7.11472 4.81588H11.2306C11.3592 4.81588 11.4878 4.7087 11.4878 4.55864V0.442788C11.4878 0.314167 11.3592 0.185547 11.2306 0.185547ZM10.9519 6.18783H10.3517C10.223 6.18783 10.1159 6.27358 10.0944 6.4022C9.68713 8.28863 8.01506 9.70346 6.00001 9.70346C4.28507 9.70346 2.82737 8.69593 2.16284 7.23823L4.86386 7.30254C5.01392 7.30254 5.14254 7.19536 5.14254 7.0453V6.44507C5.14254 6.31645 5.01392 6.18783 4.8853 6.18783H0.769448C0.619391 6.18783 0.512207 6.31645 0.512207 6.44507V10.5609C0.512207 10.711 0.619391 10.8182 0.769448 10.8182H1.34824C1.4983 10.8182 1.60548 10.711 1.60548 10.5609L1.56261 8.46013C2.50582 9.87495 4.13502 10.8182 6.00001 10.8182C8.59386 10.8182 10.759 8.97461 11.2091 6.50938C11.252 6.33789 11.1234 6.18783 10.9519 6.18783Z" fill="white"/>
</svg>
