<svg width="9" height="9" viewBox="0 0 9 9" fill="none" xmlns="http://www.w3.org/2000/svg">
<path d="M8.06251 0H5.68387C5.23311 0 4.80899 0.1755 4.49024 0.494244L0.319869 4.66501C0.116631 4.86824 0 5.14949 0 5.43825C0 5.72549 0.116631 6.00674 0.319869 6.21L2.79037 8.6805C2.99326 8.88337 3.27451 9 3.56324 9C3.85049 9 4.13174 8.88337 4.33499 8.68013L8.50574 4.50939C8.8245 4.19099 9 3.76687 9 3.31613V0.937494C9 0.420381 8.57962 0 8.06251 0ZM6.93751 3.00001C6.42037 3.00001 6.00001 2.57962 6.00001 2.06251C6.00001 1.54538 6.42039 1.12502 6.93751 1.12502C7.45462 1.12502 7.875 1.54538 7.875 2.06249C7.875 2.57963 7.45462 3.00001 6.93751 3.00001Z" fill="#535D70"/>
</svg>
