<svg width="19" height="15" viewBox="0 0 19 15" fill="none" xmlns="http://www.w3.org/2000/svg">
<path d="M6.09766 6.27734C6.0625 6.24219 5.95703 6.20703 5.88672 6.20703C5.81641 6.20703 5.74609 6.24219 5.71094 6.27734L3.21484 8.77344L1.84375 7.40234C1.77344 7.36719 1.70312 7.33203 1.63281 7.33203C1.5625 7.33203 1.45703 7.36719 1.42188 7.40234L1.03516 7.82422C1 7.85937 0.964844 7.96484 0.964844 8C0.964844 8.07031 1 8.17578 1.03516 8.21094L3.00391 10.1797C3.03906 10.2148 3.14453 10.2852 3.21484 10.2852C3.25 10.2852 3.35547 10.2148 3.39062 10.1797L6.48438 7.08594C6.51953 7.05078 6.58984 6.94531 6.58984 6.875C6.58984 6.83984 6.51953 6.73437 6.48438 6.69922L6.09766 6.27734ZM3.17969 12.5C2.58203 12.5 2.05469 13.0273 2.05469 13.625C2.05469 14.2578 2.58203 14.75 3.17969 14.75C3.8125 14.75 4.30469 14.2578 4.30469 13.625C4.30469 13.0273 3.8125 12.5 3.17969 12.5ZM6.09766 0.652344C6.0625 0.617187 5.95703 0.582031 5.88672 0.582031C5.81641 0.582031 5.74609 0.617187 5.71094 0.652344L3.21484 3.14844L1.84375 1.77734C1.77344 1.74219 1.70312 1.70703 1.63281 1.70703C1.5625 1.70703 1.45703 1.74219 1.42188 1.77734L1.03516 2.19922C1 2.23437 0.964844 2.33984 0.964844 2.375C0.964844 2.44531 1 2.55078 1.03516 2.58594L3.00391 4.55469C3.03906 4.58984 3.14453 4.66016 3.21484 4.66016C3.25 4.66016 3.35547 4.58984 3.39062 4.55469L6.48438 1.46094C6.51953 1.42578 6.58984 1.32031 6.58984 1.25C6.58984 1.21484 6.51953 1.10937 6.48438 1.07422L6.09766 0.652344ZM18.6836 13.0625H7.99609C7.82031 13.0625 7.71484 13.2031 7.71484 13.3437V13.9062C7.71484 14.082 7.82031 14.1875 7.99609 14.1875H18.6836C18.8242 14.1875 18.9648 14.082 18.9648 13.9062V13.3437C18.9648 13.2031 18.8242 13.0625 18.6836 13.0625ZM18.6836 1.8125H7.99609C7.82031 1.8125 7.71484 1.95312 7.71484 2.09375V2.65625C7.71484 2.83203 7.82031 2.9375 7.99609 2.9375H18.6836C18.8242 2.9375 18.9648 2.83203 18.9648 2.65625V2.09375C18.9648 1.95312 18.8242 1.8125 18.6836 1.8125ZM18.6836 7.4375H7.99609C7.82031 7.4375 7.71484 7.57812 7.71484 7.71875V8.28125C7.71484 8.45703 7.82031 8.5625 7.99609 8.5625H18.6836C18.8242 8.5625 18.9648 8.45703 18.9648 8.28125V7.71875C18.9648 7.57812 18.8242 7.4375 18.6836 7.4375Z" fill="#9F9EAE"/>
</svg>
