<svg width="16" height="16" viewBox="0 0 16 16" fill="none" xmlns="http://www.w3.org/2000/svg">
<path d="M14.9434 2.16992L13.8301 1.05664C13.4786 0.705078 12.9805 0.5 12.5118 0.5C12.043 0.5 11.545 0.705078 11.1934 1.05664L8.99616 3.25391L8.00007 4.25L0.851627 11.3984L0.500065 14.7383C0.441471 15.1484 0.763736 15.5 1.17389 15.5C1.20319 15.5 1.23249 15.5 1.26178 15.5L4.60163 15.1484L11.7501 8L12.7462 7.00391L14.9434 4.80664C15.6758 4.07422 15.6758 2.90234 14.9434 2.16992ZM3.9571 13.8008L1.99421 14.0059L2.19928 12.043L8.96686 5.24609L9.87507 4.33789L11.6622 6.125L10.754 7.0332L3.9571 13.8008ZM13.9473 3.81055L12.6583 5.12891L10.8712 3.3418L12.1895 2.05273C12.3067 1.93555 12.4532 1.90625 12.5118 1.90625C12.5704 1.90625 12.7169 1.93555 12.8341 2.05273L13.9473 3.16602C14.1231 3.3418 14.1231 3.63477 13.9473 3.81055Z" fill="#FC930D"/>
</svg>
