<svg width="10" height="12" viewBox="0 0 10 12" fill="none" xmlns="http://www.w3.org/2000/svg">
<path d="M5.14575 6C6.5813 6 7.77075 4.83105 7.77075 3.375C7.77075 1.93945 6.5813 0.75 5.14575 0.75C3.6897 0.75 2.52075 1.93945 2.52075 3.375C2.52075 4.83105 3.6897 6 5.14575 6ZM6.97095 6.65625H6.62231C6.17114 6.88183 5.67896 6.98437 5.14575 6.98437C4.61255 6.98437 4.09985 6.88183 3.64868 6.65625H3.30005C1.78247 6.65625 0.552002 7.90723 0.552002 9.4248V10.2656C0.552002 10.8193 0.982666 11.25 1.53638 11.25H8.75513C9.28833 11.25 9.7395 10.8193 9.7395 10.2656V9.4248C9.7395 7.90723 8.48853 6.65625 6.97095 6.65625Z" fill="#9F9EAE"/>
</svg>
